<mxfile host="app.diagrams.net" modified="2024-05-09T13:21:42.963Z" agent="Mozilla/5.0 (Windows NT 10.0; Win64; x64) AppleWebKit/537.36 (KHTML, like Gecko) Chrome/124.0.0.0 Safari/537.36" etag="GeDcqEXmVw2JhOtedLtt" version="24.3.1" type="device">
  <diagram name="Page-1" id="97916047-d0de-89f5-080d-49f4d83e522f">
    <mxGraphModel dx="1018.5" dy="1329" grid="0" gridSize="10" guides="1" tooltips="1" connect="1" arrows="1" fold="1" page="1" pageScale="1.5" pageWidth="1169" pageHeight="827" background="none" math="0" shadow="0">
      <root>
        <mxCell id="0" />
        <mxCell id="1" parent="0" />
        <mxCell id="M0NqlUpCrG136MN1uVFG-120" value="" style="group" vertex="1" connectable="0" parent="1">
          <mxGeometry x="2045" y="250" width="1153" height="554" as="geometry" />
        </mxCell>
        <mxCell id="M0NqlUpCrG136MN1uVFG-31" value="&lt;font style=&quot;font-size: 12px;&quot; data-font-src=&quot;https://fonts.googleapis.com/css?family=Jetbrains+Mono&quot; face=&quot;Jetbrains Mono&quot;&gt;&lt;b style=&quot;&quot;&gt;&lt;span style=&quot;&quot;&gt;Vytvoření knihovny&lt;/span&gt;&lt;span style=&quot;&quot;&gt;&lt;br&gt;&lt;/span&gt;&lt;/b&gt;&lt;span style=&quot;font-size: 8px;&quot;&gt;&lt;b&gt;1&lt;/b&gt;&lt;/span&gt;&lt;/font&gt;" style="rounded=1;whiteSpace=wrap;html=1;glass=0;shadow=0;strokeWidth=2;" vertex="1" parent="M0NqlUpCrG136MN1uVFG-120">
          <mxGeometry x="512" width="150" height="65" as="geometry" />
        </mxCell>
        <mxCell id="M0NqlUpCrG136MN1uVFG-43" value="" style="edgeStyle=elbowEdgeStyle;elbow=vertical;strokeWidth=2;endArrow=block;endFill=1;fontStyle=1;strokeColor=#000000;entryX=0.5;entryY=0;entryDx=0;entryDy=0;exitX=0.5;exitY=1;exitDx=0;exitDy=0;fontSize=11;" edge="1" parent="M0NqlUpCrG136MN1uVFG-120" source="M0NqlUpCrG136MN1uVFG-31" target="M0NqlUpCrG136MN1uVFG-33">
          <mxGeometry x="22" y="165.5" width="100" height="100" as="geometry">
            <mxPoint x="584" y="71" as="sourcePoint" />
            <mxPoint x="584" y="173" as="targetPoint" />
          </mxGeometry>
        </mxCell>
        <mxCell id="M0NqlUpCrG136MN1uVFG-44" value="" style="edgeStyle=elbowEdgeStyle;elbow=vertical;strokeWidth=2;endArrow=block;endFill=1;fontStyle=1;strokeColor=#000000;entryX=0.5;entryY=0;entryDx=0;entryDy=0;exitX=0.5;exitY=1;exitDx=0;exitDy=0;fontSize=11;" edge="1" parent="M0NqlUpCrG136MN1uVFG-120" source="M0NqlUpCrG136MN1uVFG-31" target="M0NqlUpCrG136MN1uVFG-34">
          <mxGeometry x="22" y="165.5" width="100" height="100" as="geometry">
            <mxPoint x="635" y="94" as="sourcePoint" />
            <mxPoint x="485" y="150" as="targetPoint" />
          </mxGeometry>
        </mxCell>
        <mxCell id="M0NqlUpCrG136MN1uVFG-90" value="" style="group" vertex="1" connectable="0" parent="M0NqlUpCrG136MN1uVFG-120">
          <mxGeometry x="603" y="109" width="550" height="431" as="geometry" />
        </mxCell>
        <mxCell id="M0NqlUpCrG136MN1uVFG-34" value="&lt;font face=&quot;Jetbrains Mono&quot;&gt;&lt;b&gt;Vytvoření komponent&lt;br&gt;&lt;/b&gt;&lt;/font&gt;&lt;b style=&quot;font-family: &amp;quot;Jetbrains Mono&amp;quot;; font-size: 8px;&quot;&gt;1.2&lt;/b&gt;&lt;font face=&quot;Jetbrains Mono&quot;&gt;&lt;b&gt;&lt;br&gt;&lt;/b&gt;&lt;/font&gt;" style="rounded=1;whiteSpace=wrap;html=1;glass=0;shadow=0;strokeWidth=2;" vertex="1" parent="M0NqlUpCrG136MN1uVFG-90">
          <mxGeometry x="210" width="150" height="65" as="geometry" />
        </mxCell>
        <mxCell id="M0NqlUpCrG136MN1uVFG-35" value="&lt;font face=&quot;Jetbrains Mono&quot;&gt;&lt;b&gt;Implementace logiky&lt;br&gt;&lt;/b&gt;&lt;/font&gt;&lt;b style=&quot;font-family: &amp;quot;Jetbrains Mono&amp;quot;; font-size: 8px;&quot;&gt;1.2.1&lt;/b&gt;&lt;font face=&quot;Jetbrains Mono&quot;&gt;&lt;b&gt;&lt;br&gt;&lt;/b&gt;&lt;/font&gt;" style="rounded=1;whiteSpace=wrap;html=1;glass=0;shadow=0;strokeWidth=2;" vertex="1" parent="M0NqlUpCrG136MN1uVFG-90">
          <mxGeometry x="20" y="109" width="150" height="65" as="geometry" />
        </mxCell>
        <mxCell id="M0NqlUpCrG136MN1uVFG-46" value="&lt;font face=&quot;Jetbrains Mono&quot;&gt;&lt;b&gt;Otestování logiky&lt;br&gt;&lt;/b&gt;&lt;/font&gt;&lt;b style=&quot;font-family: &amp;quot;Jetbrains Mono&amp;quot;; font-size: 8px;&quot;&gt;1.2.2&lt;/b&gt;&lt;font face=&quot;Jetbrains Mono&quot;&gt;&lt;b&gt;&lt;br&gt;&lt;/b&gt;&lt;/font&gt;" style="rounded=1;whiteSpace=wrap;html=1;glass=0;shadow=0;strokeWidth=2;" vertex="1" parent="M0NqlUpCrG136MN1uVFG-90">
          <mxGeometry x="210" y="109" width="150" height="65" as="geometry" />
        </mxCell>
        <mxCell id="M0NqlUpCrG136MN1uVFG-47" value="&lt;font face=&quot;Jetbrains Mono&quot;&gt;&lt;b&gt;Vytvoření automatických testů&lt;br&gt;&lt;/b&gt;&lt;/font&gt;&lt;b style=&quot;font-family: &amp;quot;Jetbrains Mono&amp;quot;; font-size: 8px;&quot;&gt;1.2.2.1&lt;/b&gt;&lt;font face=&quot;Jetbrains Mono&quot;&gt;&lt;b&gt;&lt;br&gt;&lt;/b&gt;&lt;/font&gt;" style="rounded=1;whiteSpace=wrap;html=1;glass=0;shadow=0;strokeWidth=2;" vertex="1" parent="M0NqlUpCrG136MN1uVFG-90">
          <mxGeometry x="210" y="195" width="150" height="65" as="geometry" />
        </mxCell>
        <mxCell id="M0NqlUpCrG136MN1uVFG-49" value="&lt;font face=&quot;Jetbrains Mono&quot;&gt;&lt;b&gt;Testování&lt;br&gt;odečítačů obrazovky&lt;br&gt;&lt;/b&gt;&lt;/font&gt;&lt;b style=&quot;font-family: &amp;quot;Jetbrains Mono&amp;quot;; font-size: 8px;&quot;&gt;1.2.2.2&lt;/b&gt;&lt;font face=&quot;Jetbrains Mono&quot;&gt;&lt;b&gt;&lt;br&gt;&lt;/b&gt;&lt;/font&gt;" style="rounded=1;whiteSpace=wrap;html=1;glass=0;shadow=0;strokeWidth=2;" vertex="1" parent="M0NqlUpCrG136MN1uVFG-90">
          <mxGeometry x="210" y="284" width="150" height="65" as="geometry" />
        </mxCell>
        <mxCell id="M0NqlUpCrG136MN1uVFG-50" value="&lt;font face=&quot;Jetbrains Mono&quot;&gt;&lt;b&gt;Testování&lt;br&gt;různých prohlížečů&lt;br&gt;&lt;/b&gt;&lt;/font&gt;&lt;b style=&quot;font-family: &amp;quot;Jetbrains Mono&amp;quot;; font-size: 8px;&quot;&gt;1.2.2.3&lt;/b&gt;&lt;font face=&quot;Jetbrains Mono&quot;&gt;&lt;b&gt;&lt;br&gt;&lt;/b&gt;&lt;/font&gt;" style="rounded=1;whiteSpace=wrap;html=1;glass=0;shadow=0;strokeWidth=2;" vertex="1" parent="M0NqlUpCrG136MN1uVFG-90">
          <mxGeometry x="210" y="366" width="150" height="65" as="geometry" />
        </mxCell>
        <mxCell id="M0NqlUpCrG136MN1uVFG-51" value="&lt;font face=&quot;Jetbrains Mono&quot;&gt;&lt;b&gt;Dokumentace komponent&lt;br&gt;&lt;/b&gt;&lt;/font&gt;&lt;b style=&quot;font-family: &amp;quot;Jetbrains Mono&amp;quot;; font-size: 8px;&quot;&gt;1.2.3&lt;/b&gt;&lt;font face=&quot;Jetbrains Mono&quot;&gt;&lt;b&gt;&lt;br&gt;&lt;/b&gt;&lt;/font&gt;" style="rounded=1;whiteSpace=wrap;html=1;glass=0;shadow=0;strokeWidth=2;" vertex="1" parent="M0NqlUpCrG136MN1uVFG-90">
          <mxGeometry x="400" y="109" width="150" height="65" as="geometry" />
        </mxCell>
        <mxCell id="M0NqlUpCrG136MN1uVFG-52" value="&lt;font face=&quot;Jetbrains Mono&quot;&gt;&lt;b&gt;Typedoc &lt;br&gt;dokumentace&lt;br&gt;&lt;/b&gt;&lt;/font&gt;&lt;b style=&quot;font-family: &amp;quot;Jetbrains Mono&amp;quot;; font-size: 8px;&quot;&gt;1.2.3.1&lt;/b&gt;&lt;font face=&quot;Jetbrains Mono&quot;&gt;&lt;b&gt;&lt;br&gt;&lt;/b&gt;&lt;/font&gt;" style="rounded=1;whiteSpace=wrap;html=1;glass=0;shadow=0;strokeWidth=2;" vertex="1" parent="M0NqlUpCrG136MN1uVFG-90">
          <mxGeometry x="400" y="195" width="150" height="65" as="geometry" />
        </mxCell>
        <mxCell id="M0NqlUpCrG136MN1uVFG-53" value="&lt;font face=&quot;Jetbrains Mono&quot;&gt;&lt;b&gt;Vytvoření stránek v dokumentaci&lt;br&gt;&lt;/b&gt;&lt;/font&gt;&lt;b style=&quot;font-family: &amp;quot;Jetbrains Mono&amp;quot;; font-size: 8px;&quot;&gt;1.2.3.2&lt;/b&gt;&lt;font face=&quot;Jetbrains Mono&quot;&gt;&lt;b&gt;&lt;br&gt;&lt;/b&gt;&lt;/font&gt;" style="rounded=1;whiteSpace=wrap;html=1;glass=0;shadow=0;strokeWidth=2;" vertex="1" parent="M0NqlUpCrG136MN1uVFG-90">
          <mxGeometry x="400" y="284" width="150" height="65" as="geometry" />
        </mxCell>
        <mxCell id="M0NqlUpCrG136MN1uVFG-54" value="" style="edgeStyle=elbowEdgeStyle;elbow=vertical;strokeWidth=2;endArrow=block;endFill=1;fontStyle=1;strokeColor=#000000;entryX=0.5;entryY=0;entryDx=0;entryDy=0;exitX=0.5;exitY=1;exitDx=0;exitDy=0;fontSize=11;" edge="1" parent="M0NqlUpCrG136MN1uVFG-90" source="M0NqlUpCrG136MN1uVFG-34" target="M0NqlUpCrG136MN1uVFG-46">
          <mxGeometry x="22" y="165.5" width="100" height="100" as="geometry">
            <mxPoint x="-60" y="106" as="sourcePoint" />
            <mxPoint x="90" y="162" as="targetPoint" />
          </mxGeometry>
        </mxCell>
        <mxCell id="M0NqlUpCrG136MN1uVFG-55" value="" style="edgeStyle=elbowEdgeStyle;elbow=vertical;strokeWidth=2;endArrow=block;endFill=1;fontStyle=1;strokeColor=#000000;entryX=0.5;entryY=0;entryDx=0;entryDy=0;exitX=0.5;exitY=1;exitDx=0;exitDy=0;fontSize=11;" edge="1" parent="M0NqlUpCrG136MN1uVFG-90" source="M0NqlUpCrG136MN1uVFG-34" target="M0NqlUpCrG136MN1uVFG-51">
          <mxGeometry x="22" y="165.5" width="100" height="100" as="geometry">
            <mxPoint x="348" y="90" as="sourcePoint" />
            <mxPoint x="386" y="153" as="targetPoint" />
          </mxGeometry>
        </mxCell>
        <mxCell id="M0NqlUpCrG136MN1uVFG-56" value="" style="edgeStyle=elbowEdgeStyle;elbow=vertical;strokeWidth=2;endArrow=block;endFill=1;fontStyle=1;strokeColor=#000000;entryX=0.5;entryY=0;entryDx=0;entryDy=0;exitX=0.5;exitY=1;exitDx=0;exitDy=0;fontSize=11;" edge="1" parent="M0NqlUpCrG136MN1uVFG-90" source="M0NqlUpCrG136MN1uVFG-34" target="M0NqlUpCrG136MN1uVFG-35">
          <mxGeometry x="22" y="165.5" width="100" height="100" as="geometry">
            <mxPoint x="-541" y="41" as="sourcePoint" />
            <mxPoint x="-283" y="153" as="targetPoint" />
          </mxGeometry>
        </mxCell>
        <mxCell id="M0NqlUpCrG136MN1uVFG-71" value="&lt;font face=&quot;Jetbrains Mono&quot;&gt;&lt;b&gt;Nastudování APG&lt;br&gt;specifikace&lt;br&gt;&lt;/b&gt;&lt;/font&gt;&lt;b style=&quot;font-family: &amp;quot;Jetbrains Mono&amp;quot;; font-size: 8px;&quot;&gt;1.2.1.1&lt;/b&gt;&lt;font face=&quot;Jetbrains Mono&quot;&gt;&lt;b&gt;&lt;br&gt;&lt;/b&gt;&lt;/font&gt;" style="rounded=1;whiteSpace=wrap;html=1;glass=0;shadow=0;strokeWidth=2;" vertex="1" parent="M0NqlUpCrG136MN1uVFG-90">
          <mxGeometry x="20" y="199" width="150" height="65" as="geometry" />
        </mxCell>
        <mxCell id="M0NqlUpCrG136MN1uVFG-72" value="&lt;font face=&quot;Jetbrains Mono&quot;&gt;&lt;b&gt;Implementace v Solid.js&lt;br&gt;&lt;/b&gt;&lt;/font&gt;&lt;b style=&quot;font-family: &amp;quot;Jetbrains Mono&amp;quot;; font-size: 8px;&quot;&gt;1.2.1.2&lt;/b&gt;&lt;font face=&quot;Jetbrains Mono&quot;&gt;&lt;b&gt;&lt;br&gt;&lt;/b&gt;&lt;/font&gt;" style="rounded=1;whiteSpace=wrap;html=1;glass=0;shadow=0;strokeWidth=2;" vertex="1" parent="M0NqlUpCrG136MN1uVFG-90">
          <mxGeometry x="20" y="284" width="150" height="65" as="geometry" />
        </mxCell>
        <mxCell id="M0NqlUpCrG136MN1uVFG-73" value="" style="edgeStyle=elbowEdgeStyle;elbow=vertical;strokeWidth=2;endArrow=block;endFill=1;fontStyle=1;strokeColor=#000000;entryX=0;entryY=0.5;entryDx=0;entryDy=0;exitX=0;exitY=0.5;exitDx=0;exitDy=0;fontSize=11;" edge="1" parent="M0NqlUpCrG136MN1uVFG-90" source="M0NqlUpCrG136MN1uVFG-35" target="M0NqlUpCrG136MN1uVFG-71">
          <mxGeometry x="22" y="165.5" width="100" height="100" as="geometry">
            <mxPoint x="42" y="21" as="sourcePoint" />
            <mxPoint x="-148" y="65" as="targetPoint" />
            <Array as="points">
              <mxPoint y="187" />
            </Array>
          </mxGeometry>
        </mxCell>
        <mxCell id="M0NqlUpCrG136MN1uVFG-74" value="" style="edgeStyle=elbowEdgeStyle;elbow=vertical;strokeWidth=2;endArrow=block;endFill=1;fontStyle=1;strokeColor=#000000;entryX=0;entryY=0.5;entryDx=0;entryDy=0;exitX=0;exitY=0.5;exitDx=0;exitDy=0;fontSize=11;" edge="1" parent="M0NqlUpCrG136MN1uVFG-90" source="M0NqlUpCrG136MN1uVFG-35" target="M0NqlUpCrG136MN1uVFG-72">
          <mxGeometry x="22" y="165.5" width="100" height="100" as="geometry">
            <mxPoint x="30" y="152" as="sourcePoint" />
            <mxPoint x="30" y="242" as="targetPoint" />
            <Array as="points">
              <mxPoint y="230" />
            </Array>
          </mxGeometry>
        </mxCell>
        <mxCell id="M0NqlUpCrG136MN1uVFG-75" value="" style="edgeStyle=elbowEdgeStyle;elbow=vertical;strokeWidth=2;endArrow=block;endFill=1;fontStyle=1;strokeColor=#000000;entryX=0;entryY=0.5;entryDx=0;entryDy=0;exitX=0;exitY=0.5;exitDx=0;exitDy=0;fontSize=11;" edge="1" parent="M0NqlUpCrG136MN1uVFG-90" source="M0NqlUpCrG136MN1uVFG-46" target="M0NqlUpCrG136MN1uVFG-47">
          <mxGeometry x="22" y="165.5" width="100" height="100" as="geometry">
            <mxPoint x="190" y="139.5" as="sourcePoint" />
            <mxPoint x="190" y="315.5" as="targetPoint" />
            <Array as="points">
              <mxPoint x="188" y="185" />
            </Array>
          </mxGeometry>
        </mxCell>
        <mxCell id="M0NqlUpCrG136MN1uVFG-76" value="" style="edgeStyle=elbowEdgeStyle;elbow=vertical;strokeWidth=2;endArrow=block;endFill=1;fontStyle=1;strokeColor=#000000;entryX=0;entryY=0.5;entryDx=0;entryDy=0;exitX=0;exitY=0.5;exitDx=0;exitDy=0;fontSize=11;" edge="1" parent="M0NqlUpCrG136MN1uVFG-90" source="M0NqlUpCrG136MN1uVFG-46" target="M0NqlUpCrG136MN1uVFG-49">
          <mxGeometry x="22" y="165.5" width="100" height="100" as="geometry">
            <mxPoint x="220" y="152" as="sourcePoint" />
            <mxPoint x="220" y="238" as="targetPoint" />
            <Array as="points">
              <mxPoint x="188" y="228" />
            </Array>
          </mxGeometry>
        </mxCell>
        <mxCell id="M0NqlUpCrG136MN1uVFG-77" value="" style="edgeStyle=elbowEdgeStyle;elbow=vertical;strokeWidth=2;endArrow=block;endFill=1;fontStyle=1;strokeColor=#000000;entryX=0;entryY=0.5;entryDx=0;entryDy=0;exitX=0;exitY=0.5;exitDx=0;exitDy=0;fontSize=11;" edge="1" parent="M0NqlUpCrG136MN1uVFG-90" source="M0NqlUpCrG136MN1uVFG-46" target="M0NqlUpCrG136MN1uVFG-50">
          <mxGeometry x="22" y="165.5" width="100" height="100" as="geometry">
            <mxPoint x="220" y="152" as="sourcePoint" />
            <mxPoint x="220" y="327" as="targetPoint" />
            <Array as="points">
              <mxPoint x="188" y="268" />
            </Array>
          </mxGeometry>
        </mxCell>
        <mxCell id="M0NqlUpCrG136MN1uVFG-78" value="" style="edgeStyle=elbowEdgeStyle;elbow=vertical;strokeWidth=2;endArrow=block;endFill=1;fontStyle=1;strokeColor=#000000;entryX=0;entryY=0.5;entryDx=0;entryDy=0;exitX=0;exitY=0.5;exitDx=0;exitDy=0;fontSize=11;" edge="1" parent="M0NqlUpCrG136MN1uVFG-90" source="M0NqlUpCrG136MN1uVFG-51" target="M0NqlUpCrG136MN1uVFG-53">
          <mxGeometry x="22" y="165.5" width="100" height="100" as="geometry">
            <mxPoint x="382" y="140" as="sourcePoint" />
            <mxPoint x="378" y="398" as="targetPoint" />
            <Array as="points">
              <mxPoint x="378" y="229" />
            </Array>
          </mxGeometry>
        </mxCell>
        <mxCell id="M0NqlUpCrG136MN1uVFG-79" value="" style="edgeStyle=elbowEdgeStyle;elbow=vertical;strokeWidth=2;endArrow=block;endFill=1;fontStyle=1;strokeColor=#000000;entryX=0;entryY=0.5;entryDx=0;entryDy=0;exitX=0;exitY=0.5;exitDx=0;exitDy=0;fontSize=11;" edge="1" parent="M0NqlUpCrG136MN1uVFG-90" source="M0NqlUpCrG136MN1uVFG-51" target="M0NqlUpCrG136MN1uVFG-52">
          <mxGeometry x="22" y="165.5" width="100" height="100" as="geometry">
            <mxPoint x="410" y="152" as="sourcePoint" />
            <mxPoint x="410" y="327" as="targetPoint" />
            <Array as="points">
              <mxPoint x="378" y="187" />
            </Array>
          </mxGeometry>
        </mxCell>
        <mxCell id="M0NqlUpCrG136MN1uVFG-109" value="" style="endArrow=none;html=1;rounded=0;strokeColor=#000000;strokeWidth=5;startArrow=none;startFill=0;curved=0;entryX=1;entryY=1;entryDx=0;entryDy=0;" edge="1" parent="M0NqlUpCrG136MN1uVFG-90">
          <mxGeometry width="50" height="50" relative="1" as="geometry">
            <mxPoint x="20" y="270" as="sourcePoint" />
            <mxPoint x="170" y="270" as="targetPoint" />
          </mxGeometry>
        </mxCell>
        <mxCell id="M0NqlUpCrG136MN1uVFG-111" value="" style="endArrow=none;html=1;rounded=0;strokeColor=#000000;strokeWidth=5;startArrow=none;startFill=0;curved=0;entryX=1;entryY=1;entryDx=0;entryDy=0;" edge="1" parent="M0NqlUpCrG136MN1uVFG-90">
          <mxGeometry width="50" height="50" relative="1" as="geometry">
            <mxPoint x="20" y="355" as="sourcePoint" />
            <mxPoint x="170" y="355" as="targetPoint" />
          </mxGeometry>
        </mxCell>
        <mxCell id="M0NqlUpCrG136MN1uVFG-112" value="" style="endArrow=none;html=1;rounded=0;strokeColor=#000000;strokeWidth=5;startArrow=none;startFill=0;curved=0;entryX=1;entryY=1;entryDx=0;entryDy=0;" edge="1" parent="M0NqlUpCrG136MN1uVFG-90">
          <mxGeometry width="50" height="50" relative="1" as="geometry">
            <mxPoint x="210" y="355" as="sourcePoint" />
            <mxPoint x="360" y="355" as="targetPoint" />
          </mxGeometry>
        </mxCell>
        <mxCell id="M0NqlUpCrG136MN1uVFG-113" value="" style="endArrow=none;html=1;rounded=0;strokeColor=#000000;strokeWidth=5;startArrow=none;startFill=0;curved=0;entryX=1;entryY=1;entryDx=0;entryDy=0;" edge="1" parent="M0NqlUpCrG136MN1uVFG-90">
          <mxGeometry width="50" height="50" relative="1" as="geometry">
            <mxPoint x="210" y="266" as="sourcePoint" />
            <mxPoint x="360" y="266" as="targetPoint" />
          </mxGeometry>
        </mxCell>
        <mxCell id="M0NqlUpCrG136MN1uVFG-115" value="" style="endArrow=none;html=1;rounded=0;strokeColor=#000000;strokeWidth=5;startArrow=none;startFill=0;curved=0;entryX=1;entryY=1;entryDx=0;entryDy=0;" edge="1" parent="M0NqlUpCrG136MN1uVFG-90">
          <mxGeometry width="50" height="50" relative="1" as="geometry">
            <mxPoint x="400" y="355" as="sourcePoint" />
            <mxPoint x="550" y="355" as="targetPoint" />
          </mxGeometry>
        </mxCell>
        <mxCell id="M0NqlUpCrG136MN1uVFG-116" value="" style="endArrow=none;html=1;rounded=0;strokeColor=#000000;strokeWidth=5;startArrow=none;startFill=0;curved=0;entryX=1;entryY=1;entryDx=0;entryDy=0;" edge="1" parent="M0NqlUpCrG136MN1uVFG-90">
          <mxGeometry width="50" height="50" relative="1" as="geometry">
            <mxPoint x="400" y="266" as="sourcePoint" />
            <mxPoint x="550" y="266" as="targetPoint" />
          </mxGeometry>
        </mxCell>
        <mxCell id="M0NqlUpCrG136MN1uVFG-91" value="" style="group" vertex="1" connectable="0" parent="M0NqlUpCrG136MN1uVFG-120">
          <mxGeometry y="109" width="551" height="439" as="geometry" />
        </mxCell>
        <mxCell id="M0NqlUpCrG136MN1uVFG-57" value="&lt;font face=&quot;Jetbrains Mono&quot;&gt;&lt;b&gt;Příprava knihovny&lt;br&gt;&lt;/b&gt;&lt;/font&gt;&lt;font face=&quot;Jetbrains Mono&quot;&gt;&lt;b style=&quot;font-size: 8px;&quot;&gt;1.1.1&lt;/b&gt;&lt;/font&gt;" style="rounded=1;whiteSpace=wrap;html=1;glass=0;shadow=0;strokeWidth=2;" vertex="1" parent="M0NqlUpCrG136MN1uVFG-91">
          <mxGeometry x="21" y="109" width="150" height="65" as="geometry" />
        </mxCell>
        <mxCell id="M0NqlUpCrG136MN1uVFG-33" value="&lt;font face=&quot;Jetbrains Mono&quot;&gt;&lt;b&gt;Příprava repozitáře&lt;br&gt;&lt;/b&gt;&lt;/font&gt;&lt;b style=&quot;font-family: &amp;quot;Jetbrains Mono&amp;quot;; font-size: 8px;&quot;&gt;1.1&lt;/b&gt;&lt;font face=&quot;Jetbrains Mono&quot;&gt;&lt;b&gt;&lt;br&gt;&lt;/b&gt;&lt;/font&gt;" style="rounded=1;whiteSpace=wrap;html=1;glass=0;shadow=0;strokeWidth=2;" vertex="1" parent="M0NqlUpCrG136MN1uVFG-91">
          <mxGeometry x="211" width="150" height="65" as="geometry" />
        </mxCell>
        <mxCell id="M0NqlUpCrG136MN1uVFG-36" value="&lt;font face=&quot;Jetbrains Mono&quot;&gt;&lt;b&gt;Vytvoření dokumentace&lt;br&gt;&lt;/b&gt;&lt;/font&gt;&lt;b style=&quot;font-family: &amp;quot;Jetbrains Mono&amp;quot;; font-size: 8px;&quot;&gt;1.1.3&lt;/b&gt;&lt;font face=&quot;Jetbrains Mono&quot;&gt;&lt;b&gt;&lt;br&gt;&lt;/b&gt;&lt;/font&gt;" style="rounded=1;whiteSpace=wrap;html=1;glass=0;shadow=0;strokeWidth=2;" vertex="1" parent="M0NqlUpCrG136MN1uVFG-91">
          <mxGeometry x="401" y="109" width="150" height="65" as="geometry" />
        </mxCell>
        <mxCell id="M0NqlUpCrG136MN1uVFG-58" value="&lt;font face=&quot;Jetbrains Mono&quot;&gt;&lt;b&gt;Vytvoření adresářové struktury&lt;br&gt;&lt;/b&gt;&lt;/font&gt;&lt;font face=&quot;Jetbrains Mono&quot;&gt;&lt;b style=&quot;font-size: 8px;&quot;&gt;1.1.1.1&lt;/b&gt;&lt;/font&gt;" style="rounded=1;whiteSpace=wrap;html=1;glass=0;shadow=0;strokeWidth=2;" vertex="1" parent="M0NqlUpCrG136MN1uVFG-91">
          <mxGeometry x="21.003636363635906" y="197" width="150" height="65" as="geometry" />
        </mxCell>
        <mxCell id="M0NqlUpCrG136MN1uVFG-59" value="&lt;font face=&quot;Jetbrains Mono&quot;&gt;&lt;b&gt;Vytvoření delivery&lt;br&gt;manifestu&lt;br&gt;&lt;/b&gt;&lt;/font&gt;&lt;font face=&quot;Jetbrains Mono&quot;&gt;&lt;b style=&quot;font-size: 8px;&quot;&gt;1.1.1.2&lt;/b&gt;&lt;/font&gt;" style="rounded=1;whiteSpace=wrap;html=1;glass=0;shadow=0;strokeWidth=2;" vertex="1" parent="M0NqlUpCrG136MN1uVFG-91">
          <mxGeometry x="21.003636363635906" y="286" width="150" height="65" as="geometry" />
        </mxCell>
        <mxCell id="M0NqlUpCrG136MN1uVFG-60" value="&lt;font face=&quot;Jetbrains Mono&quot;&gt;&lt;b style=&quot;font-size: 12px;&quot;&gt;Přidání do npm registry&lt;br&gt;&lt;/b&gt;&lt;b style=&quot;font-size: 8px;&quot;&gt;1.1.1.3&lt;/b&gt;&lt;/font&gt;" style="rounded=1;whiteSpace=wrap;html=1;glass=0;shadow=0;strokeWidth=2;" vertex="1" parent="M0NqlUpCrG136MN1uVFG-91">
          <mxGeometry x="21.003636363635906" y="374" width="150" height="65" as="geometry" />
        </mxCell>
        <mxCell id="M0NqlUpCrG136MN1uVFG-61" value="&lt;font face=&quot;Jetbrains Mono&quot;&gt;&lt;b&gt;Vytvoření demo aplikace&lt;br&gt;&lt;/b&gt;&lt;/font&gt;&lt;font face=&quot;Jetbrains Mono&quot;&gt;&lt;b style=&quot;font-size: 8px;&quot;&gt;1.1.2&lt;/b&gt;&lt;/font&gt;" style="rounded=1;whiteSpace=wrap;html=1;glass=0;shadow=0;strokeWidth=2;" vertex="1" parent="M0NqlUpCrG136MN1uVFG-91">
          <mxGeometry x="211" y="109" width="150" height="65" as="geometry" />
        </mxCell>
        <mxCell id="M0NqlUpCrG136MN1uVFG-62" value="&lt;font face=&quot;Jetbrains Mono&quot;&gt;&lt;b&gt;Vytvoření SolidStart projektu&lt;br&gt;&lt;/b&gt;&lt;/font&gt;&lt;font face=&quot;Jetbrains Mono&quot;&gt;&lt;b style=&quot;font-size: 8px;&quot;&gt;1.1.2.1&lt;/b&gt;&lt;/font&gt;" style="rounded=1;whiteSpace=wrap;html=1;glass=0;shadow=0;strokeWidth=2;" vertex="1" parent="M0NqlUpCrG136MN1uVFG-91">
          <mxGeometry x="211" y="197" width="150" height="65" as="geometry" />
        </mxCell>
        <mxCell id="M0NqlUpCrG136MN1uVFG-63" value="&lt;font face=&quot;Jetbrains Mono&quot;&gt;&lt;b&gt;Přidání komponent&lt;br&gt;&lt;/b&gt;&lt;/font&gt;&lt;font face=&quot;Jetbrains Mono&quot;&gt;&lt;b style=&quot;font-size: 8px;&quot;&gt;1.1.2.2&lt;/b&gt;&lt;/font&gt;" style="rounded=1;whiteSpace=wrap;html=1;glass=0;shadow=0;strokeWidth=2;perimeterSpacing=0;labelBorderColor=none;" vertex="1" parent="M0NqlUpCrG136MN1uVFG-91">
          <mxGeometry x="211" y="286" width="150" height="65" as="geometry" />
        </mxCell>
        <mxCell id="M0NqlUpCrG136MN1uVFG-64" value="&lt;font face=&quot;Jetbrains Mono&quot;&gt;&lt;b&gt;Nasazení aplikace&lt;br&gt;&lt;/b&gt;&lt;/font&gt;&lt;font face=&quot;Jetbrains Mono&quot;&gt;&lt;b style=&quot;font-size: 8px;&quot;&gt;1.1.2.3&lt;/b&gt;&lt;/font&gt;" style="rounded=1;whiteSpace=wrap;html=1;glass=0;shadow=0;strokeWidth=2;" vertex="1" parent="M0NqlUpCrG136MN1uVFG-91">
          <mxGeometry x="211" y="374" width="150" height="65" as="geometry" />
        </mxCell>
        <mxCell id="M0NqlUpCrG136MN1uVFG-65" value="&lt;font face=&quot;Jetbrains Mono&quot;&gt;&lt;b&gt;Vytvoření StarLight projektu&lt;br&gt;&lt;/b&gt;&lt;/font&gt;&lt;b style=&quot;font-family: &amp;quot;Jetbrains Mono&amp;quot;; font-size: 8px;&quot;&gt;1.1.3.1&lt;/b&gt;&lt;font face=&quot;Jetbrains Mono&quot;&gt;&lt;b&gt;&lt;br&gt;&lt;/b&gt;&lt;/font&gt;" style="rounded=1;whiteSpace=wrap;html=1;glass=0;shadow=0;strokeWidth=2;" vertex="1" parent="M0NqlUpCrG136MN1uVFG-91">
          <mxGeometry x="401" y="197" width="150" height="65" as="geometry" />
        </mxCell>
        <mxCell id="M0NqlUpCrG136MN1uVFG-66" value="&lt;font face=&quot;Jetbrains Mono&quot;&gt;&lt;b&gt;Generování typedoc&lt;br&gt;dokumentace&lt;br&gt;&lt;/b&gt;&lt;/font&gt;&lt;b style=&quot;font-family: &amp;quot;Jetbrains Mono&amp;quot;; font-size: 8px;&quot;&gt;1.1.3.2&lt;/b&gt;&lt;font face=&quot;Jetbrains Mono&quot;&gt;&lt;b&gt;&lt;br&gt;&lt;/b&gt;&lt;/font&gt;" style="rounded=1;whiteSpace=wrap;html=1;glass=0;shadow=0;strokeWidth=2;" vertex="1" parent="M0NqlUpCrG136MN1uVFG-91">
          <mxGeometry x="401" y="286" width="150" height="65" as="geometry" />
        </mxCell>
        <mxCell id="M0NqlUpCrG136MN1uVFG-67" value="&lt;font face=&quot;Jetbrains Mono&quot;&gt;&lt;b&gt;Nasazení dokumentace&lt;br&gt;&lt;/b&gt;&lt;/font&gt;&lt;b style=&quot;font-family: &amp;quot;Jetbrains Mono&amp;quot;; font-size: 8px;&quot;&gt;1.1.3.3&lt;/b&gt;&lt;font face=&quot;Jetbrains Mono&quot;&gt;&lt;b&gt;&lt;br&gt;&lt;/b&gt;&lt;/font&gt;" style="rounded=1;whiteSpace=wrap;html=1;glass=0;shadow=0;strokeWidth=2;" vertex="1" parent="M0NqlUpCrG136MN1uVFG-91">
          <mxGeometry x="401" y="374" width="150" height="65" as="geometry" />
        </mxCell>
        <mxCell id="M0NqlUpCrG136MN1uVFG-68" value="" style="edgeStyle=elbowEdgeStyle;elbow=vertical;strokeWidth=2;endArrow=block;endFill=1;fontStyle=1;strokeColor=#000000;entryX=0.5;entryY=0;entryDx=0;entryDy=0;fontSize=11;exitX=0.5;exitY=1;exitDx=0;exitDy=0;" edge="1" parent="M0NqlUpCrG136MN1uVFG-91" source="M0NqlUpCrG136MN1uVFG-33" target="M0NqlUpCrG136MN1uVFG-57">
          <mxGeometry x="22" y="165.5" width="100" height="100" as="geometry">
            <mxPoint x="51" y="72" as="sourcePoint" />
            <mxPoint x="-139" y="116" as="targetPoint" />
          </mxGeometry>
        </mxCell>
        <mxCell id="M0NqlUpCrG136MN1uVFG-69" value="" style="edgeStyle=elbowEdgeStyle;elbow=vertical;strokeWidth=2;endArrow=block;endFill=1;fontStyle=1;strokeColor=#000000;entryX=0.5;entryY=0;entryDx=0;entryDy=0;exitX=0.5;exitY=1;exitDx=0;exitDy=0;fontSize=11;" edge="1" parent="M0NqlUpCrG136MN1uVFG-91" source="M0NqlUpCrG136MN1uVFG-33" target="M0NqlUpCrG136MN1uVFG-61">
          <mxGeometry x="22" y="165.5" width="100" height="100" as="geometry">
            <mxPoint x="51" y="72" as="sourcePoint" />
            <mxPoint x="51" y="116" as="targetPoint" />
          </mxGeometry>
        </mxCell>
        <mxCell id="M0NqlUpCrG136MN1uVFG-70" value="" style="edgeStyle=elbowEdgeStyle;elbow=vertical;strokeWidth=2;endArrow=block;endFill=1;fontStyle=1;strokeColor=#000000;exitX=0.5;exitY=1;exitDx=0;exitDy=0;fontSize=11;entryX=0.5;entryY=0;entryDx=0;entryDy=0;" edge="1" parent="M0NqlUpCrG136MN1uVFG-91" source="M0NqlUpCrG136MN1uVFG-33" target="M0NqlUpCrG136MN1uVFG-36">
          <mxGeometry x="22" y="165.5" width="100" height="100" as="geometry">
            <mxPoint x="51" y="72" as="sourcePoint" />
            <mxPoint x="241" y="116" as="targetPoint" />
          </mxGeometry>
        </mxCell>
        <mxCell id="M0NqlUpCrG136MN1uVFG-81" value="" style="edgeStyle=elbowEdgeStyle;elbow=vertical;strokeWidth=2;endArrow=block;endFill=1;fontStyle=1;strokeColor=#000000;entryX=0;entryY=0.5;entryDx=0;entryDy=0;exitX=0;exitY=0.5;exitDx=0;exitDy=0;fontSize=11;" edge="1" parent="M0NqlUpCrG136MN1uVFG-91" source="M0NqlUpCrG136MN1uVFG-36" target="M0NqlUpCrG136MN1uVFG-65">
          <mxGeometry x="22" y="165.5" width="100" height="100" as="geometry">
            <mxPoint x="381" y="128" as="sourcePoint" />
            <mxPoint x="381" y="303" as="targetPoint" />
            <Array as="points">
              <mxPoint x="380" y="185" />
            </Array>
          </mxGeometry>
        </mxCell>
        <mxCell id="M0NqlUpCrG136MN1uVFG-82" value="" style="edgeStyle=elbowEdgeStyle;elbow=vertical;strokeWidth=2;endArrow=block;endFill=1;fontStyle=1;strokeColor=#000000;entryX=0;entryY=0.5;entryDx=0;entryDy=0;exitX=0;exitY=0.5;exitDx=0;exitDy=0;fontSize=11;" edge="1" parent="M0NqlUpCrG136MN1uVFG-91" source="M0NqlUpCrG136MN1uVFG-36" target="M0NqlUpCrG136MN1uVFG-66">
          <mxGeometry x="22" y="165.5" width="100" height="100" as="geometry">
            <mxPoint x="411" y="152" as="sourcePoint" />
            <mxPoint x="411" y="240" as="targetPoint" />
            <Array as="points">
              <mxPoint x="380" y="230" />
            </Array>
          </mxGeometry>
        </mxCell>
        <mxCell id="M0NqlUpCrG136MN1uVFG-83" value="" style="edgeStyle=elbowEdgeStyle;elbow=vertical;strokeWidth=2;endArrow=block;endFill=1;fontStyle=1;strokeColor=#000000;entryX=0;entryY=0.5;entryDx=0;entryDy=0;exitX=0;exitY=0.5;exitDx=0;exitDy=0;fontSize=11;" edge="1" parent="M0NqlUpCrG136MN1uVFG-91" source="M0NqlUpCrG136MN1uVFG-61" target="M0NqlUpCrG136MN1uVFG-62">
          <mxGeometry x="22" y="165.5" width="100" height="100" as="geometry">
            <mxPoint x="193" y="147" as="sourcePoint" />
            <mxPoint x="193" y="235" as="targetPoint" />
            <Array as="points">
              <mxPoint x="190" y="185" />
            </Array>
          </mxGeometry>
        </mxCell>
        <mxCell id="M0NqlUpCrG136MN1uVFG-84" value="" style="edgeStyle=elbowEdgeStyle;elbow=vertical;strokeWidth=2;endArrow=block;endFill=1;fontStyle=1;strokeColor=#000000;entryX=0;entryY=0.5;entryDx=0;entryDy=0;exitX=0;exitY=0.5;exitDx=0;exitDy=0;fontSize=11;" edge="1" parent="M0NqlUpCrG136MN1uVFG-91" source="M0NqlUpCrG136MN1uVFG-61" target="M0NqlUpCrG136MN1uVFG-63">
          <mxGeometry x="22" y="165.5" width="100" height="100" as="geometry">
            <mxPoint x="221" y="152" as="sourcePoint" />
            <mxPoint x="221" y="240" as="targetPoint" />
            <Array as="points">
              <mxPoint x="190" y="229" />
            </Array>
          </mxGeometry>
        </mxCell>
        <mxCell id="M0NqlUpCrG136MN1uVFG-85" value="" style="edgeStyle=elbowEdgeStyle;elbow=vertical;strokeWidth=2;endArrow=block;endFill=1;fontStyle=1;strokeColor=#000000;entryX=0;entryY=0.5;entryDx=0;entryDy=0;exitX=0;exitY=0.5;exitDx=0;exitDy=0;fontSize=11;" edge="1" parent="M0NqlUpCrG136MN1uVFG-91" source="M0NqlUpCrG136MN1uVFG-61" target="M0NqlUpCrG136MN1uVFG-64">
          <mxGeometry x="22" y="165.5" width="100" height="100" as="geometry">
            <mxPoint x="221" y="152" as="sourcePoint" />
            <mxPoint x="221" y="329" as="targetPoint" />
            <Array as="points">
              <mxPoint x="190" y="273" />
            </Array>
          </mxGeometry>
        </mxCell>
        <mxCell id="M0NqlUpCrG136MN1uVFG-86" value="" style="edgeStyle=elbowEdgeStyle;elbow=vertical;strokeWidth=2;endArrow=block;endFill=1;fontStyle=1;strokeColor=#000000;entryX=0;entryY=0.5;entryDx=0;entryDy=0;exitX=0;exitY=0.5;exitDx=0;exitDy=0;fontSize=11;" edge="1" parent="M0NqlUpCrG136MN1uVFG-91" source="M0NqlUpCrG136MN1uVFG-57" target="M0NqlUpCrG136MN1uVFG-58">
          <mxGeometry x="22" y="165.5" width="100" height="100" as="geometry">
            <mxPoint x="-22" y="161" as="sourcePoint" />
            <mxPoint x="-22" y="426" as="targetPoint" />
            <Array as="points">
              <mxPoint y="185" />
            </Array>
          </mxGeometry>
        </mxCell>
        <mxCell id="M0NqlUpCrG136MN1uVFG-87" value="" style="edgeStyle=elbowEdgeStyle;elbow=vertical;strokeWidth=2;endArrow=block;endFill=1;fontStyle=1;strokeColor=#000000;entryX=0;entryY=0.5;entryDx=0;entryDy=0;exitX=0;exitY=0.5;exitDx=0;exitDy=0;fontSize=11;" edge="1" parent="M0NqlUpCrG136MN1uVFG-91" source="M0NqlUpCrG136MN1uVFG-57" target="M0NqlUpCrG136MN1uVFG-59">
          <mxGeometry x="22" y="165.5" width="100" height="100" as="geometry">
            <mxPoint x="31" y="152" as="sourcePoint" />
            <mxPoint x="31" y="240" as="targetPoint" />
            <Array as="points">
              <mxPoint y="229" />
            </Array>
          </mxGeometry>
        </mxCell>
        <mxCell id="M0NqlUpCrG136MN1uVFG-88" value="" style="edgeStyle=elbowEdgeStyle;elbow=vertical;strokeWidth=2;endArrow=block;endFill=1;fontStyle=1;strokeColor=#000000;entryX=0;entryY=0.5;entryDx=0;entryDy=0;fontSize=11;exitX=0;exitY=0.5;exitDx=0;exitDy=0;" edge="1" parent="M0NqlUpCrG136MN1uVFG-91" source="M0NqlUpCrG136MN1uVFG-57" target="M0NqlUpCrG136MN1uVFG-60">
          <mxGeometry x="22" y="165.5" width="100" height="100" as="geometry">
            <mxPoint x="10" y="155" as="sourcePoint" />
            <mxPoint x="41" y="250" as="targetPoint" />
            <Array as="points">
              <mxPoint y="272" />
            </Array>
          </mxGeometry>
        </mxCell>
        <mxCell id="M0NqlUpCrG136MN1uVFG-89" value="" style="edgeStyle=elbowEdgeStyle;elbow=vertical;strokeWidth=2;endArrow=block;endFill=1;fontStyle=1;strokeColor=#000000;entryX=0;entryY=0.5;entryDx=0;entryDy=0;exitX=0;exitY=0.5;exitDx=0;exitDy=0;fontSize=11;" edge="1" parent="M0NqlUpCrG136MN1uVFG-91" source="M0NqlUpCrG136MN1uVFG-36" target="M0NqlUpCrG136MN1uVFG-67">
          <mxGeometry x="22" y="165.5" width="100" height="100" as="geometry">
            <mxPoint x="390" y="228" as="sourcePoint" />
            <mxPoint x="390" y="405" as="targetPoint" />
            <Array as="points">
              <mxPoint x="380" y="273" />
            </Array>
          </mxGeometry>
        </mxCell>
        <mxCell id="M0NqlUpCrG136MN1uVFG-101" value="" style="endArrow=none;html=1;rounded=0;strokeColor=#000000;strokeWidth=5;startArrow=none;startFill=0;curved=0;entryX=1;entryY=1;entryDx=0;entryDy=0;" edge="1" parent="M0NqlUpCrG136MN1uVFG-91">
          <mxGeometry width="50" height="50" relative="1" as="geometry">
            <mxPoint x="211" y="357" as="sourcePoint" />
            <mxPoint x="361" y="357" as="targetPoint" />
          </mxGeometry>
        </mxCell>
        <mxCell id="M0NqlUpCrG136MN1uVFG-102" value="" style="endArrow=none;html=1;rounded=0;strokeColor=#000000;strokeWidth=5;startArrow=none;startFill=0;curved=0;entryX=1;entryY=1;entryDx=0;entryDy=0;" edge="1" parent="M0NqlUpCrG136MN1uVFG-91">
          <mxGeometry width="50" height="50" relative="1" as="geometry">
            <mxPoint x="211" y="268" as="sourcePoint" />
            <mxPoint x="361" y="268" as="targetPoint" />
          </mxGeometry>
        </mxCell>
        <mxCell id="M0NqlUpCrG136MN1uVFG-103" value="" style="endArrow=none;html=1;rounded=0;strokeColor=#000000;strokeWidth=5;startArrow=none;startFill=0;curved=0;entryX=1;entryY=1;entryDx=0;entryDy=0;" edge="1" parent="M0NqlUpCrG136MN1uVFG-91">
          <mxGeometry width="50" height="50" relative="1" as="geometry">
            <mxPoint x="21" y="268" as="sourcePoint" />
            <mxPoint x="171" y="268" as="targetPoint" />
          </mxGeometry>
        </mxCell>
        <mxCell id="M0NqlUpCrG136MN1uVFG-104" value="" style="endArrow=none;html=1;rounded=0;strokeColor=#000000;strokeWidth=5;startArrow=none;startFill=0;curved=0;entryX=1;entryY=1;entryDx=0;entryDy=0;" edge="1" parent="M0NqlUpCrG136MN1uVFG-91">
          <mxGeometry width="50" height="50" relative="1" as="geometry">
            <mxPoint x="21" y="357" as="sourcePoint" />
            <mxPoint x="171" y="357" as="targetPoint" />
          </mxGeometry>
        </mxCell>
        <mxCell id="M0NqlUpCrG136MN1uVFG-106" value="" style="endArrow=none;html=1;rounded=0;strokeColor=#000000;strokeWidth=5;startArrow=none;startFill=0;curved=0;entryX=1;entryY=1;entryDx=0;entryDy=0;" edge="1" parent="M0NqlUpCrG136MN1uVFG-91">
          <mxGeometry width="50" height="50" relative="1" as="geometry">
            <mxPoint x="401" y="357" as="sourcePoint" />
            <mxPoint x="551" y="357" as="targetPoint" />
          </mxGeometry>
        </mxCell>
        <mxCell id="M0NqlUpCrG136MN1uVFG-107" value="" style="endArrow=none;html=1;rounded=0;strokeColor=#000000;strokeWidth=5;startArrow=none;startFill=0;curved=0;entryX=1;entryY=1;entryDx=0;entryDy=0;" edge="1" parent="M0NqlUpCrG136MN1uVFG-91">
          <mxGeometry width="50" height="50" relative="1" as="geometry">
            <mxPoint x="401" y="268" as="sourcePoint" />
            <mxPoint x="551" y="268" as="targetPoint" />
          </mxGeometry>
        </mxCell>
        <mxCell id="M0NqlUpCrG136MN1uVFG-108" value="" style="endArrow=none;html=1;rounded=0;strokeColor=#000000;strokeWidth=5;startArrow=none;startFill=0;curved=0;entryX=1;entryY=1;entryDx=0;entryDy=0;" edge="1" parent="M0NqlUpCrG136MN1uVFG-91">
          <mxGeometry width="50" height="50" relative="1" as="geometry">
            <mxPoint x="401" y="445" as="sourcePoint" />
            <mxPoint x="551" y="445" as="targetPoint" />
          </mxGeometry>
        </mxCell>
        <mxCell id="M0NqlUpCrG136MN1uVFG-98" value="" style="endArrow=none;html=1;rounded=0;strokeColor=#000000;strokeWidth=5;startArrow=none;startFill=0;curved=0;entryX=1;entryY=1;entryDx=0;entryDy=0;" edge="1" parent="M0NqlUpCrG136MN1uVFG-120">
          <mxGeometry width="50" height="50" relative="1" as="geometry">
            <mxPoint x="211" y="554" as="sourcePoint" />
            <mxPoint x="361" y="554" as="targetPoint" />
          </mxGeometry>
        </mxCell>
        <mxCell id="M0NqlUpCrG136MN1uVFG-105" value="" style="endArrow=none;html=1;rounded=0;strokeColor=#000000;strokeWidth=5;startArrow=none;startFill=0;curved=0;entryX=1;entryY=1;entryDx=0;entryDy=0;" edge="1" parent="M0NqlUpCrG136MN1uVFG-120">
          <mxGeometry width="50" height="50" relative="1" as="geometry">
            <mxPoint x="22" y="554" as="sourcePoint" />
            <mxPoint x="172" y="554" as="targetPoint" />
          </mxGeometry>
        </mxCell>
        <mxCell id="M0NqlUpCrG136MN1uVFG-114" value="" style="endArrow=none;html=1;rounded=0;strokeColor=#000000;strokeWidth=5;startArrow=none;startFill=0;curved=0;entryX=1;entryY=1;entryDx=0;entryDy=0;" edge="1" parent="M0NqlUpCrG136MN1uVFG-120">
          <mxGeometry width="50" height="50" relative="1" as="geometry">
            <mxPoint x="813" y="546" as="sourcePoint" />
            <mxPoint x="963" y="546" as="targetPoint" />
          </mxGeometry>
        </mxCell>
      </root>
    </mxGraphModel>
  </diagram>
</mxfile>
